<?xml version="1.0" encoding="UTF-8" standalone="no"?>
<!-- Created with Inkscape (http://www.inkscape.org/) -->

<svg
   width="57.81498"
   height="57.81498"
   viewBox="0 0 15.296879 15.29688"
   version="1.1"
   id="svg1"
   xml:space="preserve"
   xmlns:xlink="http://www.w3.org/1999/xlink"
   xmlns="http://www.w3.org/2000/svg"
   xmlns:svg="http://www.w3.org/2000/svg"><defs
     id="defs1"><linearGradient
       id="linearGradient678"><stop
         style="stop-color:#ffffff;stop-opacity:0.52631581;"
         offset="0"
         id="stop676" /><stop
         style="stop-color:#ffffff;stop-opacity:0.41353384;"
         offset="0.46252179"
         id="stop677" /><stop
         style="stop-color:#ffffff;stop-opacity:0;"
         offset="0.80363762"
         id="stop678" /></linearGradient><linearGradient
       id="linearGradient675"><stop
         style="stop-color:#ffffff;stop-opacity:0.5714286;"
         offset="0"
         id="stop673" /><stop
         style="stop-color:#ffffff;stop-opacity:0.58646619;"
         offset="0.55529964"
         id="stop674" /><stop
         style="stop-color:#ffffff;stop-opacity:0.19172932;"
         offset="1"
         id="stop675" /></linearGradient><linearGradient
       id="linearGradient672"><stop
         style="stop-color:#ffffff;stop-opacity:0.59682542;"
         offset="0"
         id="stop670" /><stop
         style="stop-color:#ffffff;stop-opacity:0.45488721;"
         offset="0.52613056"
         id="stop671" /><stop
         style="stop-color:#ffffff;stop-opacity:0;"
         offset="1"
         id="stop672" /></linearGradient><linearGradient
       id="linearGradient669"><stop
         style="stop-color:#ffffff;stop-opacity:0.34210527;"
         offset="0"
         id="stop667" /><stop
         style="stop-color:#ffffff;stop-opacity:0.40601504;"
         offset="0.52924311"
         id="stop668" /><stop
         style="stop-color:#ffffff;stop-opacity:0;"
         offset="1"
         id="stop669" /></linearGradient><linearGradient
       xlink:href="#linearGradient669"
       id="linearGradient667"
       gradientUnits="userSpaceOnUse"
       x1="105.96104"
       y1="102.5725"
       x2="39.841049"
       y2="40.306736" /><linearGradient
       xlink:href="#linearGradient672"
       id="linearGradient670"
       gradientUnits="userSpaceOnUse"
       x1="199.13042"
       y1="119.87347"
       x2="143.19612"
       y2="44.499123" /><linearGradient
       xlink:href="#linearGradient675"
       id="linearGradient673"
       gradientUnits="userSpaceOnUse"
       x1="201.66945"
       y1="211.03522"
       x2="145.38089"
       y2="154.23134" /><linearGradient
       xlink:href="#linearGradient678"
       id="linearGradient676"
       gradientUnits="userSpaceOnUse"
       x1="105.96104"
       y1="210.11996"
       x2="25.994368"
       y2="138.02277" /></defs><g
     id="g663"
     style="display:inline"
     transform="matrix(-0.0764844,0,0,-0.0764844,15.296879,15.296879)"><path
       id="path660"
       style="display:inline;fill:#f84d42;fill-opacity:1;stroke-width:0.396392"
       d="M 22.883357,0 C 10.205953,0 0,10.205953 0,22.883357 v 50.127171 c 0,6.338703 2.5514883,12.059542 6.687652,16.195705 4.136164,4.136164 9.857003,6.687652 16.195705,6.687652 0,0 5.032567,0.332367 1.538001,-5.793067 -2.326428,-4.077868 -2.086806,-9.528594 -1.178493,-13.11385 1.030246,-4.066551 7.206944,-18.251516 24.704594,-18.03863 17.5136,0.21308 24.455711,13.273198 25.581901,20.564635 0.557837,3.611675 0.136319,7.64744 -1.648405,10.838874 -1.552498,2.776167 -2.315528,5.423523 1.129573,5.542038 12.66991,0.435857 22.883357,-10.205952 22.883357,-22.883357 0,0 -1.083929,-14.472791 5.316475,-15.678629 1.67456,0.04792 3.37227,0.385021 4.91908,1.028361 4.89968,2.03781 3.86417,9.651871 13.29737,8.753471 9.43315,-0.89838 14.7454,-7.398584 15.41922,-19.526973 0.67379,-12.12839 -9.35495,-18.879984 -16.54214,-18.879984 -7.18719,0 -8.00571,5.979119 -12.57753,7.861019 -1.55367,0.63954 -3.29337,1.546138 -4.9165,1.112076 C 94.855792,36.08762 95.893885,22.883357 95.893885,22.883357 95.893885,10.205953 85.687933,0 73.010528,0 Z" /><path
       id="path661"
       style="display:inline;fill:#fbc12b;fill-opacity:1;stroke-width:0.396392"
       d="M 199.99999,22.883357 C 199.99999,10.205953 189.79404,0 177.11663,0 h -50.12717 c -6.3387,0 -12.05954,2.551488 -16.1957,6.687652 -4.13616,4.136164 -6.68765,9.857003 -6.68765,16.195705 0,0 -0.33237,5.032567 5.79306,1.538001 4.07787,-2.326428 9.5286,-2.086806 13.11385,-1.178493 4.06655,1.030246 18.25152,7.206944 18.03863,24.704594 -0.21308,17.5136 -13.27319,24.455711 -20.56463,25.581901 -3.61168,0.557837 -7.64744,0.136319 -10.83888,-1.648405 -2.77616,-1.552498 -5.42352,-2.315528 -5.54203,1.129573 -0.43586,12.66991 10.20595,22.883352 22.88335,22.883352 0,0 14.47279,-1.08392 15.67863,5.31648 -0.0479,1.67456 -0.38502,3.37227 -1.02836,4.91908 -2.03781,4.89968 -9.65187,3.86417 -8.75347,13.29737 0.89838,9.43315 7.39859,14.7454 19.52697,15.41922 12.12839,0.67379 18.87999,-9.35495 18.87999,-16.54214 0,-7.18719 -5.97912,-8.00571 -7.86102,-12.57753 -0.63954,-1.55367 -1.54614,-3.29337 -1.11208,-4.9165 1.59225,-5.95407 14.79651,-4.91598 14.79651,-4.91598 12.67741,0 22.88336,-10.205947 22.88336,-22.883352 z" /><path
       id="path662"
       style="display:inline;fill:#fba82b;fill-opacity:1;stroke-width:0.396392"
       d="m 177.11664,199.99999 c 12.6774,0 22.88335,-10.20595 22.88335,-22.88336 v -50.12717 c 0,-6.3387 -2.55148,-12.05954 -6.68765,-16.1957 -4.13616,-4.13616 -9.857,-6.68765 -16.1957,-6.68765 0,0 -5.03257,-0.33237 -1.538,5.79306 2.32642,4.07787 2.0868,9.5286 1.17849,13.11385 -1.03025,4.06655 -7.20694,18.25152 -24.70459,18.03863 -17.5136,-0.21308 -24.45572,-13.27319 -25.58191,-20.56463 -0.55783,-3.61168 -0.13631,-7.64744 1.64841,-10.83888 1.5525,-2.77616 2.31553,-5.42352 -1.12957,-5.54203 -12.66992,-0.43586 -22.88336,10.20595 -22.88336,22.88335 0,0 1.08392,14.47279 -5.316477,15.67863 -1.67456,-0.0479 -3.37227,-0.38502 -4.91908,-1.02836 -4.89968,-2.03781 -3.86417,-9.65187 -13.29737,-8.75347 -9.43315,0.89838 -14.7454,7.39859 -15.41922,19.52697 -0.67379,12.12839 9.35495,18.87999 16.54214,18.87999 7.18719,0 8.00571,-5.97912 12.57753,-7.86102 1.55367,-0.63954 3.29337,-1.54614 4.9165,-1.11208 5.954067,1.59225 4.915977,14.79651 4.915977,14.79651 0,12.67741 10.20595,22.88336 22.88336,22.88336 z" /><path
       id="path663"
       style="display:inline;fill:#3ab2c1;fill-opacity:1;fill-rule:nonzero;stroke-width:0.396392"
       d="m 0,177.11664 c 0,12.6774 10.205953,22.88335 22.883357,22.88335 h 50.127171 c 6.338703,0 12.059542,-2.55148 16.195705,-6.68765 4.136164,-4.13616 6.687652,-9.857 6.687652,-16.1957 0,0 0.332367,-5.03257 -5.793067,-1.538 -4.077868,2.32642 -9.528594,2.0868 -13.11385,1.17849 -4.066551,-1.03025 -18.251516,-7.20695 -18.03863,-24.7046 0.21308,-17.5136 13.273198,-24.45571 20.564635,-25.5819 3.611675,-0.55783 7.64744,-0.13632 10.838874,1.64841 2.776167,1.5525 5.423523,2.31553 5.542038,-1.12957 0.435857,-12.66991 -10.205952,-22.88336 -22.883357,-22.88336 0,0 -14.472791,1.08393 -15.678629,-5.316477 0.04792,-1.67456 0.385021,-3.37227 1.028361,-4.91908 2.03781,-4.89968 9.651871,-3.86417 8.753471,-13.29737 -0.89838,-9.433149 -7.398584,-14.745399 -19.526973,-15.419219 -12.12839,-0.67379 -18.879984,9.35495 -18.879984,16.542139 0,7.18719 5.979119,8.00571 7.861019,12.57753 0.63954,1.55367 1.546138,3.29337 1.112076,4.9165 C 36.08762,105.1442 22.883357,104.10611 22.883357,104.10611 10.205953,104.10611 0,114.31206 0,126.98947 Z" /></g><g
     id="g667"
     style="display:inline;opacity:1"
     transform="matrix(-0.0764844,0,0,-0.0764844,15.296879,15.296879)"><path
       id="path664"
       style="display:inline;fill:url(#linearGradient667);stroke-width:0.396392"
       d="M 22.883357,0 C 10.205953,0 0,10.205953 0,22.883357 v 50.127171 c 0,6.338703 2.5514883,12.059542 6.687652,16.195705 4.136164,4.136164 9.857003,6.687652 16.195705,6.687652 0,0 5.032567,0.332367 1.538001,-5.793067 -2.326428,-4.077868 -2.086806,-9.528594 -1.178493,-13.11385 1.030246,-4.066551 7.206944,-18.251516 24.704594,-18.03863 17.5136,0.21308 24.455711,13.273198 25.581901,20.564635 0.557837,3.611675 0.136319,7.64744 -1.648405,10.838874 -1.552498,2.776167 -2.315528,5.423523 1.129573,5.542038 12.66991,0.435857 22.883357,-10.205952 22.883357,-22.883357 0,0 -1.083929,-14.472791 5.316475,-15.678629 1.67456,0.04792 3.37227,0.385021 4.91908,1.028361 4.89968,2.03781 3.86417,9.651871 13.29737,8.753471 9.43315,-0.89838 14.7454,-7.398584 15.41922,-19.526973 0.67379,-12.12839 -9.35495,-18.879984 -16.54214,-18.879984 -7.18719,0 -8.00571,5.979119 -12.57753,7.861019 -1.55367,0.63954 -3.29337,1.546138 -4.9165,1.112076 C 94.855792,36.08762 95.893885,22.883357 95.893885,22.883357 95.893885,10.205953 85.687933,0 73.010528,0 Z" /><path
       id="path665"
       style="display:inline;fill:url(#linearGradient670);stroke-width:0.396392"
       d="M 199.99999,22.883357 C 199.99999,10.205953 189.79404,0 177.11663,0 h -50.12717 c -6.3387,0 -12.05954,2.551488 -16.1957,6.687652 -4.13616,4.136164 -6.68765,9.857003 -6.68765,16.195705 0,0 -0.33237,5.032567 5.79306,1.538001 4.07787,-2.326428 9.5286,-2.086806 13.11385,-1.178493 4.06655,1.030246 18.25152,7.206944 18.03863,24.704594 -0.21308,17.5136 -13.27319,24.455711 -20.56463,25.581901 -3.61168,0.557837 -7.64744,0.136319 -10.83888,-1.648405 -2.77616,-1.552498 -5.42352,-2.315528 -5.54203,1.129573 -0.43586,12.66991 10.20595,22.883352 22.88335,22.883352 0,0 14.47279,-1.08392 15.67863,5.31648 -0.0479,1.67456 -0.38502,3.37227 -1.02836,4.91908 -2.03781,4.89968 -9.65187,3.86417 -8.75347,13.29737 0.89838,9.43315 7.39859,14.7454 19.52697,15.41922 12.12839,0.67379 18.87999,-9.35495 18.87999,-16.54214 0,-7.18719 -5.97912,-8.00571 -7.86102,-12.57753 -0.63954,-1.55367 -1.54614,-3.29337 -1.11208,-4.9165 1.59225,-5.95407 14.79651,-4.91598 14.79651,-4.91598 12.67741,0 22.88336,-10.205947 22.88336,-22.883352 z" /><path
       id="path666"
       style="display:inline;fill:url(#linearGradient673);stroke-width:0.396392"
       d="m 177.11664,199.99999 c 12.6774,0 22.88335,-10.20595 22.88335,-22.88336 v -50.12717 c 0,-6.3387 -2.55148,-12.05954 -6.68765,-16.1957 -4.13616,-4.13616 -9.857,-6.68765 -16.1957,-6.68765 0,0 -5.03257,-0.33237 -1.538,5.79306 2.32642,4.07787 2.0868,9.5286 1.17849,13.11385 -1.03025,4.06655 -7.20694,18.25152 -24.70459,18.03863 -17.5136,-0.21308 -24.45572,-13.27319 -25.58191,-20.56463 -0.55783,-3.61168 -0.13631,-7.64744 1.64841,-10.83888 1.5525,-2.77616 2.31553,-5.42352 -1.12957,-5.54203 -12.66992,-0.43586 -22.88336,10.20595 -22.88336,22.88335 0,0 1.08392,14.47279 -5.316477,15.67863 -1.67456,-0.0479 -3.37227,-0.38502 -4.91908,-1.02836 -4.89968,-2.03781 -3.86417,-9.65187 -13.29737,-8.75347 -9.43315,0.89838 -14.7454,7.39859 -15.41922,19.52697 -0.67379,12.12839 9.35495,18.87999 16.54214,18.87999 7.18719,0 8.00571,-5.97912 12.57753,-7.86102 1.55367,-0.63954 3.29337,-1.54614 4.9165,-1.11208 5.954067,1.59225 4.915977,14.79651 4.915977,14.79651 0,12.67741 10.20595,22.88336 22.88336,22.88336 z" /><path
       id="path667"
       style="display:inline;fill:url(#linearGradient676);fill-rule:nonzero;stroke-width:0.396392"
       d="m 0,177.11664 c 0,12.6774 10.205953,22.88335 22.883357,22.88335 h 50.127171 c 6.338703,0 12.059542,-2.55148 16.195705,-6.68765 4.136164,-4.13616 6.687652,-9.857 6.687652,-16.1957 0,0 0.332367,-5.03257 -5.793067,-1.538 -4.077868,2.32642 -9.528594,2.0868 -13.11385,1.17849 -4.066551,-1.03025 -18.251516,-7.20695 -18.03863,-24.7046 0.21308,-17.5136 13.273198,-24.45571 20.564635,-25.5819 3.611675,-0.55783 7.64744,-0.13632 10.838874,1.64841 2.776167,1.5525 5.423523,2.31553 5.542038,-1.12957 0.435857,-12.66991 -10.205952,-22.88336 -22.883357,-22.88336 0,0 -14.472791,1.08393 -15.678629,-5.316477 0.04792,-1.67456 0.385021,-3.37227 1.028361,-4.91908 2.03781,-4.89968 9.651871,-3.86417 8.753471,-13.29737 -0.89838,-9.433149 -7.398584,-14.745399 -19.526973,-15.419219 -12.12839,-0.67379 -18.879984,9.35495 -18.879984,16.542139 0,7.18719 5.979119,8.00571 7.861019,12.57753 0.63954,1.55367 1.546138,3.29337 1.112076,4.9165 C 36.08762,105.1442 22.883357,104.10611 22.883357,104.10611 10.205953,104.10611 0,114.31206 0,126.98947 Z" /></g></svg>
