<?xml version="1.0" encoding="UTF-8" standalone="no"?>
<!-- Created with Inkscape (http://www.inkscape.org/) -->

<svg
   width="132.49529"
   height="186.33435"
   viewBox="0 0 35.056042 49.300964"
   version="1.1"
   id="svg1"
   xml:space="preserve"
   sodipodi:docname="InkluConnectLogoOriginalC.svg"
   inkscape:version="1.4 (86a8ad7, 2024-10-11)"
   xmlns:inkscape="http://www.inkscape.org/namespaces/inkscape"
   xmlns:sodipodi="http://sodipodi.sourceforge.net/DTD/sodipodi-0.dtd"
   xmlns="http://www.w3.org/2000/svg"
   xmlns:svg="http://www.w3.org/2000/svg"><sodipodi:namedview
     id="namedview1"
     pagecolor="#ffffff"
     bordercolor="#000000"
     borderopacity="0.25"
     inkscape:showpageshadow="2"
     inkscape:pageopacity="0.0"
     inkscape:pagecheckerboard="0"
     inkscape:deskcolor="#d1d1d1"
     showgrid="false"
     inkscape:zoom="3.4895801"
     inkscape:cx="29.516446"
     inkscape:cy="4.4417952"
     inkscape:window-width="1920"
     inkscape:window-height="1009"
     inkscape:window-x="1912"
     inkscape:window-y="-8"
     inkscape:window-maximized="1"
     inkscape:current-layer="svg1"><inkscape:page
       x="0"
       y="0"
       width="35.056042"
       height="49.300964"
       id="page2"
       margin="0"
       bleed="0" /></sodipodi:namedview><defs
     id="defs1" /><g
     id="g663"
     style="display:inline"
     transform="matrix(-0.36552189,0,0,-0.36552189,35.056043,73.104375)"><path
       id="path663"
       style="display:inline;fill:#3ab2c1;fill-opacity:1;fill-rule:nonzero;stroke-width:0.396392"
       d="m 0,177.11664 c 0,12.6774 10.205953,22.88335 22.883357,22.88335 h 50.127171 c 6.338703,0 12.059542,-2.55148 16.195705,-6.68765 4.136164,-4.13616 6.687652,-9.857 6.687652,-16.1957 0,0 0.332367,-5.03257 -5.793067,-1.538 -4.077868,2.32642 -9.528594,2.0868 -13.11385,1.17849 -4.066551,-1.03025 -18.251516,-7.20695 -18.03863,-24.7046 0.21308,-17.5136 13.273198,-24.45571 20.564635,-25.5819 3.611675,-0.55783 7.64744,-0.13632 10.838874,1.64841 2.776167,1.5525 5.423523,2.31553 5.542038,-1.12957 0.435857,-12.66991 -10.205952,-22.88336 -22.883357,-22.88336 0,0 -14.472791,1.08393 -15.678629,-5.316477 0.04792,-1.67456 0.385021,-3.37227 1.028361,-4.91908 2.03781,-4.89968 9.651871,-3.86417 8.753471,-13.29737 -0.89838,-9.433149 -7.398584,-14.745399 -19.526973,-15.419219 -12.12839,-0.67379 -18.879984,9.35495 -18.879984,16.542139 0,7.18719 5.979119,8.00571 7.861019,12.57753 0.63954,1.55367 1.546138,3.29337 1.112076,4.9165 C 36.08762,105.1442 22.883357,104.10611 22.883357,104.10611 10.205953,104.10611 0,114.31206 0,126.98947 Z" /></g></svg>
