<?xml version="1.0" encoding="UTF-8" standalone="no"?>
<!-- Uploaded to: SVG Repo, www.svgrepo.com, Generator: SVG Repo Mixer Tools -->

<svg
   fill="#000000"
   version="1.1"
   id="Capa_1"
   width="800.00275"
   height="382.58093"
   viewBox="0 0 403.96439 193.18568"
   xml:space="preserve"
   xmlns="http://www.w3.org/2000/svg"
   xmlns:svg="http://www.w3.org/2000/svg"><defs
   id="defs1" />
<g
   id="g1"
   transform="translate(9.9999999e-4,-105.38838)">
	<path
   d="m 399.908,160.269 c -31.824,-15.3 -64.26,-28.152 -89.964,-52.632 -5.508,-4.896 -12.24,-1.224 -12.853,5.508 -1.836,15.3 -2.448,29.988 -2.448,44.676 -29.375,-9.18 -69.155,-3.06 -97.308,-5.508 -59.976,-4.284 -119.952,-17.748 -179.928,-15.912 -5.508,0 -9.792,6.732 -6.732,11.628 15.912,23.868 36.108,43.452 55.08,64.26 -20.196,25.093 -44.064,45.9 -63.648,71.604 -4.284,5.508 -1.836,13.464 5.508,14.076 103.428,7.956 194.616,-64.872 293.76,-82.009 -1.836,18.36 -1.224,36.721 -0.612,55.08 0,6.12 7.956,9.792 12.853,5.509 33.048,-33.049 63.647,-67.32 89.964,-105.876 1.224,-3.672 -0.612,-8.568 -3.672,-10.404 z M 23.528,282.668 c 17.136,-20.195 35.496,-40.392 48.96,-63.035 3.672,0.611 7.956,-3.673 5.508,-7.956 -14.076,-20.809 -31.212,-39.168 -46.512,-59.364 47.736,0.612 94.86,9.18 142.596,14.076 43.452,4.896 89.352,7.344 133.416,8.568 5.508,0 7.344,-7.344 3.06,-10.404 -0.611,-0.612 -1.224,-0.612 -1.836,-1.224 0,-12.24 0.612,-24.48 1.836,-36.108 22.645,17.748 48.349,29.376 74.664,41.616 -21.42,29.988 -45.288,57.528 -70.38,83.844 -0.612,-15.301 -1.836,-30.601 -1.224,-45.9 0,-3.672 -3.061,-5.508 -6.12,-5.508 -1.224,-1.836 -3.06,-3.06 -6.12,-2.448 -96.696,11.016 -180.54,82.62 -277.848,83.843 z"
   id="path1" />
</g>
</svg>
